<svg width="25" height="25" viewBox="0 0 25 25" fill="none" xmlns="http://www.w3.org/2000/svg">
<g clip-path="url(#clip0_274_500)">
<path d="M23.8281 6.25H23.4375V3.90625C23.4375 1.71875 18.5938 0 12.5 0C6.40625 0 1.5625 1.71875 1.5625 3.90625V6.25H1.17188C0.524902 6.25 0 6.77441 0 7.42188V11.3281C0 11.9751 0.524902 12.5 1.17188 12.5H1.5625V20.3125C1.5625 21.1753 2.26221 21.875 3.125 21.875V23.4375C3.125 24.3003 3.82471 25 4.6875 25H6.25C7.11279 25 7.8125 24.3003 7.8125 23.4375V21.875H17.1875V23.4375C17.1875 24.3003 17.8872 25 18.75 25H20.3125C21.1753 25 21.875 24.3003 21.875 23.4375V21.875H22.1875C22.9688 21.875 23.4375 21.25 23.4375 20.625V12.5H23.8281C24.4751 12.5 25 11.9751 25 11.3281V7.42188C25 6.77441 24.4751 6.25 23.8281 6.25ZM5.46875 19.5312C4.60596 19.5312 3.90625 18.8315 3.90625 17.9688C3.90625 17.106 4.60596 16.4062 5.46875 16.4062C6.33154 16.4062 7.03125 17.106 7.03125 17.9688C7.03125 18.8315 6.33154 19.5312 5.46875 19.5312ZM6.25 14.0625C5.38721 14.0625 4.6875 13.3628 4.6875 12.5V6.25C4.6875 5.38721 5.38721 4.6875 6.25 4.6875H18.75C19.6128 4.6875 20.3125 5.38721 20.3125 6.25V12.5C20.3125 13.3628 19.6128 14.0625 18.75 14.0625H6.25ZM19.5312 19.5312C18.6685 19.5312 17.9688 18.8315 17.9688 17.9688C17.9688 17.106 18.6685 16.4062 19.5312 16.4062C20.394 16.4062 21.0938 17.106 21.0938 17.9688C21.0938 18.8315 20.394 19.5312 19.5312 19.5312Z" fill="white"/>
</g>
<defs>
<clipPath id="clip0_274_500">
<rect width="25" height="25" fill="white"/>
</clipPath>
</defs>
</svg>
