<svg width="35" height="35" viewBox="0 0 35 35" fill="none" xmlns="http://www.w3.org/2000/svg">
<path d="M34.0625 10.9375C34.5781 10.9375 35 10.5684 35 10.1172V7.38281C35 6.93164 34.5781 6.5625 34.0625 6.5625H32.5V3.28125C32.5 1.46973 30.8203 0 28.75 0H3.75C1.67969 0 0 1.46973 0 3.28125V31.7188C0 33.5303 1.67969 35 3.75 35H28.75C30.8203 35 32.5 33.5303 32.5 31.7188V28.4375H34.0625C34.5781 28.4375 35 28.0684 35 27.6172V24.8828C35 24.4316 34.5781 24.0625 34.0625 24.0625H32.5V19.6875H34.0625C34.5781 19.6875 35 19.3184 35 18.8672V16.1328C35 15.6816 34.5781 15.3125 34.0625 15.3125H32.5V10.9375H34.0625ZM16.25 8.75C19.0078 8.75 21.25 10.7119 21.25 13.125C21.25 15.5381 19.0078 17.5 16.25 17.5C13.4922 17.5 11.25 15.5381 11.25 13.125C11.25 10.7119 13.4922 8.75 16.25 8.75ZM25 24.9375C25 25.6621 24.2188 26.25 23.25 26.25H9.25C8.28125 26.25 7.5 25.6621 7.5 24.9375V23.625C7.5 21.4512 9.85156 19.6875 12.75 19.6875H13.1406C14.1016 20.0361 15.1484 20.2344 16.25 20.2344C17.3516 20.2344 18.4062 20.0361 19.3594 19.6875H19.75C22.6484 19.6875 25 21.4512 25 23.625V24.9375Z" fill="#D0A26E"/>
</svg>
