<svg width="30" height="40" viewBox="0 0 30 40" fill="none" xmlns="http://www.w3.org/2000/svg">
<path d="M30 28.125V1.875C30 0.835938 29.2835 0 28.3929 0H6.42857C2.87946 0 0 3.35938 0 7.5V32.5C0 36.6406 2.87946 40 6.42857 40H28.3929C29.2835 40 30 39.1641 30 38.125V36.875C30 36.2891 29.7656 35.7578 29.404 35.4141C29.1228 34.2109 29.1228 30.7812 29.404 29.5781C29.7656 29.2422 30 28.7109 30 28.125ZM8.57143 10.4688C8.57143 10.2109 8.75223 10 8.97321 10H23.1696C23.3906 10 23.5714 10.2109 23.5714 10.4688V12.0312C23.5714 12.2891 23.3906 12.5 23.1696 12.5H8.97321C8.75223 12.5 8.57143 12.2891 8.57143 12.0312V10.4688ZM8.57143 15.4688C8.57143 15.2109 8.75223 15 8.97321 15H23.1696C23.3906 15 23.5714 15.2109 23.5714 15.4688V17.0312C23.5714 17.2891 23.3906 17.5 23.1696 17.5H8.97321C8.75223 17.5 8.57143 17.2891 8.57143 17.0312V15.4688ZM25.5402 35H6.42857C5.2433 35 4.28571 33.8828 4.28571 32.5C4.28571 31.125 5.25 30 6.42857 30H25.5402C25.4129 31.3359 25.4129 33.6641 25.5402 35Z" fill="#D0A26E"/>
</svg>
