<svg width="10" height="35" viewBox="0 0 10 35" fill="none" xmlns="http://www.w3.org/2000/svg">
<path d="M0.976562 29H1.95312V19.125H0.976562C0.437207 19.125 0 18.5129 0 17.7578V14.4922C0 13.7371 0.437207 13.125 0.976562 13.125H6.44531C6.98467 13.125 7.42188 13.7371 7.42188 14.4922V29H8.39844C8.93779 29 9.375 29.6121 9.375 30.3672V33.6328C9.375 34.3879 8.93779 35 8.39844 35H0.976562C0.437207 35 0 34.3879 0 33.6328V30.3672C0 29.6121 0.437207 29 0.976562 29ZM4.6875 0C2.74585 0 1.17188 2.20356 1.17188 4.92188C1.17188 7.64019 2.74585 9.84375 4.6875 9.84375C6.62915 9.84375 8.20312 7.64019 8.20312 4.92188C8.20312 2.20356 6.6291 0 4.6875 0Z" fill="#D0A26E"/>
</svg>
