<svg width="30" height="40" viewBox="0 0 30 40" fill="none" xmlns="http://www.w3.org/2000/svg">
<path d="M14.9928 1.18761C15.0505 1.55479 16.1538 8.5704 16.1538 11.2501C16.1538 15.336 14.149 18.2501 11.1851 19.4219L12.1154 38.0234C12.1659 39.0938 11.3798 40 10.3846 40H5.76923C4.78125 40 3.98798 39.1016 4.03846 38.0234L4.96875 19.4219C1.9976 18.2501 0 15.3282 0 11.2501C0 8.56259 1.10337 1.55479 1.16106 1.18761C1.39183 -0.398325 4.42788 -0.421762 4.61538 1.27355V12.3048C4.70913 12.5704 5.70433 12.5548 5.76923 12.3048C5.87019 10.3282 6.33894 1.4298 6.34615 1.22667C6.58413 -0.398325 9.56971 -0.398325 9.80048 1.22667C9.8149 1.43761 10.2764 10.3282 10.3774 12.3048C10.4423 12.5548 11.4447 12.5704 11.5312 12.3048V1.27355C11.7187 -0.41395 14.762 -0.398325 14.9928 1.18761ZM23.5889 23.5079L22.5072 37.9688C22.4207 39.0625 23.2212 40 24.2308 40H28.2692C29.2284 40 30 39.1641 30 38.125V1.87511C30 0.843859 29.2284 0.00011166 28.2692 0.00011166C22.3197 0.00011166 12.3029 13.9454 23.5889 23.5079Z" fill="#D0A26E"/>
</svg>
