<svg width="14" height="25" viewBox="0 0 14 25" fill="none" xmlns="http://www.w3.org/2000/svg">
<path d="M12.25 0H1.75C0.783854 0 0 1.0498 0 2.34375V22.6562C0 23.9502 0.783854 25 1.75 25H12.25C13.2161 25 14 23.9502 14 22.6562V2.34375C14 1.0498 13.2161 0 12.25 0ZM5.25 1.5625H8.75C9.07083 1.5625 9.33333 1.91406 9.33333 2.34375C9.33333 2.77344 9.07083 3.125 8.75 3.125H5.25C4.92917 3.125 4.66667 2.77344 4.66667 2.34375C4.66667 1.91406 4.92917 1.5625 5.25 1.5625ZM7 7.8125C8.28698 7.8125 9.33333 9.21387 9.33333 10.9375C9.33333 12.6611 8.28698 14.0625 7 14.0625C5.71302 14.0625 4.66667 12.6611 4.66667 10.9375C4.66667 9.21387 5.71302 7.8125 7 7.8125ZM11.0833 19.375C11.0833 19.8926 10.7188 20.3125 10.2667 20.3125H3.73333C3.28125 20.3125 2.91667 19.8926 2.91667 19.375V18.4375C2.91667 16.8848 4.01406 15.625 5.36667 15.625H5.54896C5.9974 15.874 6.48594 16.0156 7 16.0156C7.51406 16.0156 8.00625 15.874 8.45104 15.625H8.63333C9.98594 15.625 11.0833 16.8848 11.0833 18.4375V19.375Z" fill="black"/>
</svg>
