<svg width="35" height="32" viewBox="0 0 35 32" fill="none" xmlns="http://www.w3.org/2000/svg">
<path d="M17.036 8.30164L5.83379 19.1493V30.857C5.83379 31.1602 5.93622 31.4509 6.11853 31.6652C6.30084 31.8796 6.54811 32 6.80594 32L13.6146 31.9793C13.8716 31.9778 14.1176 31.8567 14.2989 31.6425C14.4802 31.4283 14.5819 31.1385 14.5819 30.8363V23.9991C14.5819 23.696 14.6843 23.4052 14.8666 23.1909C15.049 22.9765 15.2962 22.8561 15.5541 22.8561H19.4426C19.7005 22.8561 19.9477 22.9765 20.1301 23.1909C20.3124 23.4052 20.4148 23.696 20.4148 23.9991V30.8313C20.4144 30.9817 20.4392 31.1307 20.4879 31.2698C20.5366 31.4089 20.6081 31.5353 20.6984 31.6418C20.7888 31.7483 20.8961 31.8328 21.0142 31.8905C21.1324 31.9482 21.259 31.9779 21.3869 31.9779L28.1932 32C28.451 32 28.6983 31.8796 28.8806 31.6652C29.0629 31.4509 29.1653 31.1602 29.1653 30.857V19.1414L17.9656 8.30164C17.8339 8.17686 17.6699 8.10881 17.5008 8.10881C17.3317 8.10881 17.1676 8.17686 17.036 8.30164ZM34.7309 15.6746L29.6514 10.7519V0.857239C29.6514 0.629885 29.5746 0.411843 29.4379 0.251079C29.3011 0.0903161 29.1157 0 28.9223 0H25.5198C25.3264 0 25.141 0.0903161 25.0042 0.251079C24.8675 0.411843 24.7907 0.629885 24.7907 0.857239V6.04425L19.3509 0.78223C18.8289 0.277159 18.1738 0.00100965 17.4977 0.00100965C16.8217 0.00100965 16.1666 0.277159 15.6446 0.78223L0.264606 15.6746C0.190776 15.7464 0.129693 15.8345 0.0848477 15.934C0.0400026 16.0335 0.0122738 16.1424 0.00324585 16.2546C-0.00578212 16.3667 0.00406762 16.4798 0.0322323 16.5874C0.0603969 16.6951 0.106325 16.7951 0.167391 16.8819L1.71675 19.0964C1.77765 19.1835 1.85256 19.2556 1.93718 19.3086C2.02181 19.3615 2.11449 19.3944 2.20993 19.4052C2.30536 19.416 2.40167 19.4046 2.49335 19.3716C2.58503 19.3386 2.67027 19.2846 2.74419 19.2129L17.036 5.37274C17.1676 5.24796 17.3317 5.17991 17.5008 5.17991C17.6699 5.17991 17.8339 5.24796 17.9656 5.37274L32.258 19.2129C32.3318 19.2847 32.4169 19.3387 32.5084 19.3718C32.6 19.4049 32.6962 19.4165 32.7915 19.4058C32.8869 19.3952 32.9795 19.3626 33.0642 19.3099C33.1488 19.2572 33.2238 19.1854 33.2848 19.0986L34.8342 16.884C34.8952 16.7968 34.9409 16.6962 34.9687 16.5881C34.9966 16.48 35.006 16.3665 34.9964 16.2541C34.9868 16.1417 34.9584 16.0326 34.9128 15.9332C34.8672 15.8337 34.8054 15.7459 34.7309 15.6746Z" fill="#D0A26E"/>
</svg>
