<svg width="19" height="22" viewBox="0 0 19 22" fill="none" xmlns="http://www.w3.org/2000/svg">
<path d="M18.4722 2.75C18.7638 2.75 19 2.44234 19 2.0625V0.6875C19 0.307656 18.7638 0 18.4722 0H0.527778C0.236181 0 0 0.307656 0 0.6875V2.0625C0 2.44234 0.236181 2.75 0.527778 2.75H1.0549V19.25H0.527778C0.236181 19.25 0 19.5577 0 19.9375V21.3125C0 21.6923 0.236181 22 0.527778 22H8.44444V18.5625C8.44444 18.1844 8.68194 17.875 8.97222 17.875H10.0278C10.3181 17.875 10.5556 18.1844 10.5556 18.5625V22H18.4722C18.7638 22 19 21.6923 19 21.3125V19.9375C19 19.5577 18.7638 19.25 18.4722 19.25H17.9444V2.75H18.4722ZM8.44444 4.675C8.44444 4.4 8.65556 4.125 8.86667 4.125H10.1333C10.3444 4.125 10.5556 4.4 10.5556 4.675V6.325C10.5556 6.6 10.3444 6.875 10.1333 6.875H8.86667C8.65556 6.875 8.44444 6.6 8.44444 6.325V4.675ZM8.44444 8.8C8.44444 8.525 8.65556 8.25 8.86667 8.25H10.1333C10.3444 8.25 10.5556 8.525 10.5556 8.8V10.45C10.5556 10.725 10.3444 11 10.1333 11H8.86667C8.65556 11 8.44444 10.725 8.44444 10.45V8.8ZM4.22222 4.675C4.22222 4.4 4.43333 4.125 4.64444 4.125H5.91111C6.12222 4.125 6.33333 4.4 6.33333 4.675V6.325C6.33333 6.6 6.12222 6.875 5.91111 6.875H4.64444C4.43333 6.875 4.22222 6.6 4.22222 6.325V4.675ZM5.91111 11H4.64444C4.43333 11 4.22222 10.725 4.22222 10.45V8.8C4.22222 8.525 4.43333 8.25 4.64444 8.25H5.91111C6.12222 8.25 6.33333 8.525 6.33333 8.8V10.45C6.33333 10.725 6.12222 11 5.91111 11ZM6.33333 16.5C6.33333 14.2218 7.75108 12.375 9.5 12.375C11.2489 12.375 12.6667 14.2218 12.6667 16.5H6.33333ZM14.7778 10.45C14.7778 10.725 14.5667 11 14.3556 11H13.0889C12.8778 11 12.6667 10.725 12.6667 10.45V8.8C12.6667 8.525 12.8778 8.25 13.0889 8.25H14.3556C14.5667 8.25 14.7778 8.525 14.7778 8.8V10.45ZM14.7778 6.325C14.7778 6.6 14.5667 6.875 14.3556 6.875H13.0889C12.8778 6.875 12.6667 6.6 12.6667 6.325V4.675C12.6667 4.4 12.8778 4.125 13.0889 4.125H14.3556C14.5667 4.125 14.7778 4.4 14.7778 4.675V6.325Z" fill="black"/>
</svg>
