<svg width="35" height="40" viewBox="0 0 35 40" fill="none" xmlns="http://www.w3.org/2000/svg">
<path d="M34.0278 5C34.5649 5 35 4.44063 35 3.75V1.25C35 0.559375 34.5649 0 34.0278 0H0.972222C0.435069 0 0 0.559375 0 1.25V3.75C0 4.44063 0.435069 5 0.972222 5H1.94323V35H0.972222C0.435069 35 0 35.5594 0 36.25V38.75C0 39.4406 0.435069 40 0.972222 40H15.5556V33.75C15.5556 33.0625 15.9931 32.5 16.5278 32.5H18.4722C19.0069 32.5 19.4444 33.0625 19.4444 33.75V40H34.0278C34.5649 40 35 39.4406 35 38.75V36.25C35 35.5594 34.5649 35 34.0278 35H33.0556V5H34.0278ZM15.5556 8.5C15.5556 8 15.9444 7.5 16.3333 7.5H18.6667C19.0556 7.5 19.4444 8 19.4444 8.5V11.5C19.4444 12 19.0556 12.5 18.6667 12.5H16.3333C15.9444 12.5 15.5556 12 15.5556 11.5V8.5ZM15.5556 16C15.5556 15.5 15.9444 15 16.3333 15H18.6667C19.0556 15 19.4444 15.5 19.4444 16V19C19.4444 19.5 19.0556 20 18.6667 20H16.3333C15.9444 20 15.5556 19.5 15.5556 19V16ZM7.77778 8.5C7.77778 8 8.16667 7.5 8.55556 7.5H10.8889C11.2778 7.5 11.6667 8 11.6667 8.5V11.5C11.6667 12 11.2778 12.5 10.8889 12.5H8.55556C8.16667 12.5 7.77778 12 7.77778 11.5V8.5ZM10.8889 20H8.55556C8.16667 20 7.77778 19.5 7.77778 19V16C7.77778 15.5 8.16667 15 8.55556 15H10.8889C11.2778 15 11.6667 15.5 11.6667 16V19C11.6667 19.5 11.2778 20 10.8889 20ZM11.6667 30C11.6667 25.8578 14.2783 22.5 17.5 22.5C20.7217 22.5 23.3333 25.8578 23.3333 30H11.6667ZM27.2222 19C27.2222 19.5 26.8333 20 26.4444 20H24.1111C23.7222 20 23.3333 19.5 23.3333 19V16C23.3333 15.5 23.7222 15 24.1111 15H26.4444C26.8333 15 27.2222 15.5 27.2222 16V19ZM27.2222 11.5C27.2222 12 26.8333 12.5 26.4444 12.5H24.1111C23.7222 12.5 23.3333 12 23.3333 11.5V8.5C23.3333 8 23.7222 7.5 24.1111 7.5H26.4444C26.8333 7.5 27.2222 8 27.2222 8.5V11.5Z" fill="#D0A26E"/>
</svg>
