<svg width="19" height="25" viewBox="0 0 19 25" fill="none" xmlns="http://www.w3.org/2000/svg">
<path d="M18.75 5.95415V6.25H12.5V0H12.7958C13.1066 1.62498e-06 13.4047 0.123458 13.6245 0.343213L18.4067 5.12549C18.6265 5.34526 18.75 5.64334 18.75 5.95415ZM12.1094 7.8125C11.4648 7.8125 10.9375 7.28516 10.9375 6.64062V0H1.17188C0.524658 0 0 0.524658 0 1.17188V23.8281C0 24.4753 0.524658 25 1.17188 25H17.5781C18.2253 25 18.75 24.4753 18.75 23.8281V7.8125H12.1094ZM5.49536 8.59375C6.78979 8.59375 7.83911 9.64307 7.83911 10.9375C7.83911 12.2319 6.78979 13.2812 5.49536 13.2812C4.20093 13.2812 3.15161 12.2319 3.15161 10.9375C3.15161 9.64307 4.20098 8.59375 5.49536 8.59375ZM15.6516 20.3125H3.15161L3.17529 17.9451L5.10474 16.0156C5.33354 15.7868 5.68086 15.8105 5.90967 16.0393L7.83911 17.9688L12.8936 12.9143C13.1224 12.6855 13.4934 12.6855 13.7222 12.9143L15.6516 14.8438V20.3125Z" fill="black"/>
</svg>
