<svg width="40" height="40" viewBox="0 0 40 40" fill="none" xmlns="http://www.w3.org/2000/svg">
<path d="M18.1758 18.175C17.1677 19.1831 17.1677 20.8169 18.1758 21.8242C19.1831 22.8323 20.8177 22.8323 21.825 21.8242C22.8331 20.8161 22.8331 19.1823 21.825 18.175C20.8169 17.1677 19.1831 17.1677 18.1758 18.175ZM20 0C8.95403 0 0 8.95403 0 20C0 31.046 8.95403 40 20 40C31.046 40 40 31.046 40 20C40 8.95403 31.046 0 20 0ZM30.1726 11.9395L24.8524 23.5806C24.5951 24.1436 24.1436 24.5951 23.5806 24.8524L11.9403 30.1726C10.5976 30.7863 9.21371 29.4024 9.82742 28.0597L15.1484 16.4185C15.4057 15.8556 15.8572 15.4041 16.4202 15.1468L28.0605 9.82661C29.4032 9.21371 30.7863 10.5968 30.1726 11.9395Z" fill="#D0A26E"/>
</svg>
