<svg width="35" height="40" viewBox="0 0 35 40" fill="none" xmlns="http://www.w3.org/2000/svg">
<path d="M10.5 20C13.8852 20 16.625 15.5268 16.625 10C16.625 4.47321 13.8852 0 10.5 0C7.11484 0 4.375 4.47321 4.375 10C4.375 15.5268 7.11484 20 10.5 20ZM14.7 22.8571H14.2461C13.1086 23.75 11.8453 24.2857 10.5 24.2857C9.15469 24.2857 7.89687 23.75 6.75391 22.8571H6.3C2.82187 22.8571 0 27.4643 0 33.1429V35.7143C0 38.0804 1.17578 40 2.625 40H18.375C19.8242 40 21 38.0804 21 35.7143V33.1429C21 27.4643 18.1781 22.8571 14.7 22.8571ZM26.25 20C29.1484 20 31.5 16.1607 31.5 11.4286C31.5 6.69643 29.1484 2.85714 26.25 2.85714C23.3516 2.85714 21 6.69643 21 11.4286C21 16.1607 23.3516 20 26.25 20ZM28.875 22.8571H28.6672C27.907 23.2857 27.1031 23.5714 26.25 23.5714C25.3969 23.5714 24.593 23.2857 23.8328 22.8571H23.625C22.5094 22.8571 21.4812 23.3839 20.5789 24.2321C21.9133 26.5804 22.75 29.6964 22.75 33.1429V36.5714C22.75 36.7679 22.7227 36.9554 22.7172 37.1429H32.375C33.8242 37.1429 35 35.2232 35 32.8571C35 27.3304 32.2602 22.8571 28.875 22.8571Z" fill="#D0A26E"/>
</svg>
