<svg width="25" height="25" viewBox="0 0 25 25" fill="none" xmlns="http://www.w3.org/2000/svg">
<path d="M21.0938 10.9375H19.9219V7.42188C19.9219 3.33008 16.5918 0 12.5 0C8.4082 0 5.07812 3.33008 5.07812 7.42188V10.9375H3.90625C2.6123 10.9375 1.5625 11.9873 1.5625 13.2812V22.6562C1.5625 23.9502 2.6123 25 3.90625 25H21.0938C22.3877 25 23.4375 23.9502 23.4375 22.6562V13.2812C23.4375 11.9873 22.3877 10.9375 21.0938 10.9375ZM16.0156 10.9375H8.98438V7.42188C8.98438 5.4834 10.5615 3.90625 12.5 3.90625C14.4385 3.90625 16.0156 5.4834 16.0156 7.42188V10.9375Z" fill="black"/>
</svg>
