<svg width="12" height="25" viewBox="0 0 12 25" fill="none" xmlns="http://www.w3.org/2000/svg">
<path d="M10.2 0H1.8C0.80625 0 0 1.0498 0 2.34375V22.6562C0 23.9502 0.80625 25 1.8 25H10.2C11.1938 25 12 23.9502 12 22.6562V2.34375C12 1.0498 11.1938 0 10.2 0ZM6 23.4375C5.33625 23.4375 4.8 22.7393 4.8 21.875C4.8 21.0107 5.33625 20.3125 6 20.3125C6.66375 20.3125 7.2 21.0107 7.2 21.875C7.2 22.7393 6.66375 23.4375 6 23.4375ZM10.2 18.1641C10.2 18.4863 9.9975 18.75 9.75 18.75H2.25C2.0025 18.75 1.8 18.4863 1.8 18.1641V2.92969C1.8 2.60742 2.0025 2.34375 2.25 2.34375H9.75C9.9975 2.34375 10.2 2.60742 10.2 2.92969V18.1641Z" fill="black"/>
</svg>
