<svg width="19" height="25" viewBox="0 0 19 25" fill="none" xmlns="http://www.w3.org/2000/svg">
<path d="M16.4062 0H2.34375C1.0498 0 0 1.0498 0 2.34375V22.6562C0 23.9502 1.0498 25 2.34375 25H16.4062C17.7002 25 18.75 23.9502 18.75 22.6562V2.34375C18.75 1.0498 17.7002 0 16.4062 0ZM7.03125 1.5625H11.7188C12.1484 1.5625 12.5 1.91406 12.5 2.34375C12.5 2.77344 12.1484 3.125 11.7188 3.125H7.03125C6.60156 3.125 6.25 2.77344 6.25 2.34375C6.25 1.91406 6.60156 1.5625 7.03125 1.5625ZM9.375 7.8125C11.0986 7.8125 12.5 9.21387 12.5 10.9375C12.5 12.6611 11.0986 14.0625 9.375 14.0625C7.65137 14.0625 6.25 12.6611 6.25 10.9375C6.25 9.21387 7.65137 7.8125 9.375 7.8125ZM14.8438 19.375C14.8438 19.8926 14.3555 20.3125 13.75 20.3125H5C4.39453 20.3125 3.90625 19.8926 3.90625 19.375V18.4375C3.90625 16.8848 5.37598 15.625 7.1875 15.625H7.43164C8.03223 15.874 8.68652 16.0156 9.375 16.0156C10.0635 16.0156 10.7227 15.874 11.3184 15.625H11.5625C13.374 15.625 14.8438 16.8848 14.8438 18.4375V19.375Z" fill="black"/>
</svg>
