<svg width="35" height="40" viewBox="0 0 35 40" fill="none" xmlns="http://www.w3.org/2000/svg">
<path d="M33.3902 29.1641C33.5324 28.0625 33.5324 26.9375 33.3902 25.8359L34.8013 24.6719C34.9654 24.5391 35.0365 24.2656 34.9818 24.0078C34.6154 22.3203 33.9864 20.7891 33.166 19.5234C33.0402 19.3281 32.8378 19.2812 32.6738 19.4141L31.2627 20.5781C30.6665 19.8516 29.9829 19.2891 29.2445 18.9141V16.5859C29.2445 16.3203 29.1132 16.0859 28.9327 16.0312C27.7131 15.6406 26.4715 15.6562 25.312 16.0312C25.1316 16.0859 25.0003 16.3203 25.0003 16.5859V18.9141C24.2619 19.2891 23.5783 19.8516 22.9821 20.5781L21.571 19.4141C21.4124 19.2812 21.2046 19.3281 21.0788 19.5234C20.2584 20.7891 19.6294 22.3203 19.263 24.0078C19.2083 24.2656 19.2848 24.5391 19.4435 24.6719L20.8545 25.8359C20.7123 26.9375 20.7123 28.0625 20.8545 29.1641L19.4435 30.3281C19.2794 30.4609 19.2083 30.7344 19.263 30.9922C19.6294 32.6797 20.2584 34.2031 21.0788 35.4766C21.2046 35.6719 21.4069 35.7188 21.571 35.5859L22.9821 34.4219C23.5783 35.1484 24.2619 35.7109 25.0003 36.0859V38.4141C25.0003 38.6797 25.1316 38.9141 25.312 38.9688C26.5317 39.3594 27.7732 39.3438 28.9327 38.9688C29.1132 38.9141 29.2445 38.6797 29.2445 38.4141V36.0859C29.9829 35.7109 30.6665 35.1484 31.2627 34.4219L32.6738 35.5859C32.8324 35.7188 33.0402 35.6719 33.166 35.4766C33.9864 34.2109 34.6154 32.6797 34.9818 30.9922C35.0365 30.7344 34.9599 30.4609 34.8013 30.3281L33.3902 29.1641ZM27.1279 31.2891C25.6621 31.2891 24.4752 29.5859 24.4752 27.5C24.4752 25.4141 25.6676 23.7109 27.1279 23.7109C28.5882 23.7109 29.7805 25.4141 29.7805 27.5C29.7805 29.5859 28.5936 31.2891 27.1279 31.2891ZM12.2513 20C16.1181 20 19.252 15.5234 19.252 10C19.252 4.47656 16.1181 0 12.2513 0C8.38448 0 5.25055 4.47656 5.25055 10C5.25055 15.5234 8.38448 20 12.2513 20ZM23.2556 37.6953C23.1298 37.6016 23.004 37.4922 22.8837 37.3906L22.4516 37.75C22.1234 38.0156 21.7515 38.1641 21.3796 38.1641C20.7834 38.1641 20.2092 37.8047 19.799 37.1797C18.7981 35.6328 18.0324 33.75 17.6003 31.7422C17.2995 30.3594 17.7042 28.8984 18.5793 28.1719L19.0114 27.8125C19.0059 27.6094 19.0059 27.4062 19.0114 27.2031L18.5793 26.8438C17.7042 26.125 17.2995 24.6562 17.6003 23.2734C17.6495 23.0469 17.7206 22.8203 17.7753 22.5938C17.5675 22.5703 17.3651 22.5 17.1518 22.5H16.2384C15.0242 23.2969 13.6733 23.75 12.2513 23.75C10.8293 23.75 9.48381 23.2969 8.26415 22.5H7.35078C3.29253 22.5 0 27.2031 0 33V36.25C0 38.3203 1.17591 40 2.62528 40H21.8773C22.4297 40 22.9438 39.75 23.365 39.3359C23.2993 39.0391 23.2556 38.7344 23.2556 38.4141V37.6953Z" fill="#D0A26E"/>
</svg>
