<svg width="50" height="40" viewBox="0 0 50 40" fill="none" xmlns="http://www.w3.org/2000/svg">
<path d="M43.8122 25H18.3656L18.9338 27.5H42.234C43.5708 27.5 44.5617 28.6173 44.2655 29.7905L43.7866 31.6871C45.409 32.3959 46.5278 33.8928 46.5278 35.625C46.5278 38.0626 44.3126 40.0347 41.5951 39.9995C39.0063 39.966 36.8773 38.0752 36.8074 35.7459C36.7692 34.4734 37.3356 33.3201 38.266 32.4999H20.0674C20.9681 33.2941 21.5278 34.4005 21.5278 35.625C21.5278 38.1104 19.225 40.1118 16.4349 39.9951C13.9575 39.8916 11.9426 38.0901 11.8124 35.861C11.7119 34.1396 12.7183 32.6223 14.2474 31.8309L8.14957 5H2.08333C0.932726 5 0 4.16055 0 3.125V1.875C0 0.839453 0.932726 0 2.08333 0H10.9834C11.9731 0 12.8261 0.626641 13.0245 1.49922L13.8201 5H47.9158C49.2527 5 50.2436 6.11726 49.9473 7.29055L45.8438 23.5405C45.6282 24.3942 44.785 25 43.8122 25ZM35.4167 13.125H31.25V10C31.25 9.30961 30.6282 8.75 29.8611 8.75H28.4722C27.7051 8.75 27.0833 9.30961 27.0833 10V13.125H22.9167C22.1496 13.125 21.5278 13.6846 21.5278 14.375V15.625C21.5278 16.3154 22.1496 16.875 22.9167 16.875H27.0833V20C27.0833 20.6904 27.7051 21.25 28.4722 21.25H29.8611C30.6282 21.25 31.25 20.6904 31.25 20V16.875H35.4167C36.1838 16.875 36.8056 16.3154 36.8056 15.625V14.375C36.8056 13.6846 36.1838 13.125 35.4167 13.125Z" fill="#D0A26E"/>
</svg>
