<svg width="40" height="40" viewBox="0 0 40 40" fill="none" xmlns="http://www.w3.org/2000/svg">
<path d="M38.9994 34.6667H1.00016C0.447669 34.6667 0.00017766 35.2634 0.00017766 36.0001V38.6667C0.00017766 39.4033 0.447669 40 1.00016 40H38.9994C39.5519 40 39.9994 39.4033 39.9994 38.6667V36.0001C39.9994 35.2634 39.5519 34.6667 38.9994 34.6667ZM5.03446 25.7727C5.42695 26.3427 5.97819 26.666 6.55505 26.6652L14.7136 26.6502C15.3575 26.6491 15.9921 26.4458 16.5661 26.0569L34.7508 13.7529C36.422 12.6221 37.9201 11.0079 38.9394 8.8938C40.0838 6.5205 40.2082 4.80303 39.7563 3.58971C39.3057 2.37557 38.2101 1.48391 36.1157 1.30225C34.2502 1.14058 32.3946 1.79557 30.7233 2.92556L24.5666 7.09133L10.8981 0.253097C10.7338 0.105481 10.5428 0.0190745 10.345 0.00281258C10.1473 -0.0134493 9.94982 0.0410232 9.77312 0.160598L5.66382 2.94139C4.99696 3.39222 4.83571 4.57887 5.3407 5.31885L15.1043 13.4937L8.65376 17.8587L4.13197 14.8195C3.97619 14.7148 3.80411 14.6604 3.62965 14.6607C3.45518 14.661 3.28321 14.716 3.12762 14.8212L0.619541 16.5187C-0.0329467 16.9603 -0.204818 18.112 0.271423 18.8587L5.03446 25.7727Z" fill="#D0A26E"/>
</svg>
