<svg width="14" height="25" viewBox="0 0 14 25" fill="none" xmlns="http://www.w3.org/2000/svg">
<path d="M14 5.95415V6.25H9.33333V0H9.55423C9.78629 1.62498e-06 10.0088 0.123458 10.1729 0.343213L13.7437 5.12549C13.9078 5.34526 14 5.64334 14 5.95415ZM9.04167 7.8125C8.56042 7.8125 8.16667 7.28516 8.16667 6.64062V0H0.875C0.391745 0 0 0.524658 0 1.17188V23.8281C0 24.4753 0.391745 25 0.875 25H13.125C13.6083 25 14 24.4753 14 23.8281V7.8125H9.04167ZM4.1032 8.59375C5.06971 8.59375 5.8532 9.64307 5.8532 10.9375C5.8532 12.2319 5.06971 13.2812 4.1032 13.2812C3.13669 13.2812 2.3532 12.2319 2.3532 10.9375C2.3532 9.64307 3.13673 8.59375 4.1032 8.59375ZM11.6865 20.3125H2.3532L2.37089 17.9451L3.81154 16.0156C3.98238 15.7868 4.24171 15.8105 4.41255 16.0393L5.8532 17.9688L9.62719 12.9143C9.79803 12.6855 10.075 12.6855 10.2459 12.9143L11.6865 14.8438V20.3125Z" fill="black"/>
</svg>
